<?xml version="1.0" standalone="no"?><!DOCTYPE svg PUBLIC "-//W3C//DTD SVG 1.1//EN" "http://www.w3.org/Graphics/SVG/1.1/DTD/svg11.dtd"><svg t="1540283482175" class="icon" style="" viewBox="0 0 1024 1024" version="1.1" xmlns="http://www.w3.org/2000/svg" p-id="2081" xmlns:xlink="http://www.w3.org/1999/xlink" width="32" height="32"><defs><style type="text/css"></style></defs><path d="M520.64 837.344l-176.48 0c-19.647 0-36.991-7.936-50.176-22.943-12.544-14.336-18.911-32.16-18.911-53.024l0-75.968 310.815 0 0 78.304c0 20.704-5.792 38.048-17.216 51.521C556.448 829.728 539.84 837.344 520.64 837.344zM323.072 733.408l0 27.968c0 9.12 2.208 15.937 6.977 21.376 4.096 4.672 8.191 6.592 14.08 6.592l176.479 0c5.12 0 8.32-1.439 11.424-5.088 3.937-4.672 5.824-11.328 5.824-20.544l0-30.304L323.072 733.408zM433.407 654.592c-22.752 0-46.655-1.472-71.04-4.384-38.783-4.608-77.407-15.84-114.783-33.408-33.696-16.416-62.977-38.592-87.328-66.016-23.776-26.72-43.264-55.84-57.92-86.496-14.496-30.24-25.248-61.664-32-93.344-6.784-31.616-9.856-60.512-9.152-85.984 0-8.448-0.16-16.96-0.479-24.96-0.353-9.152-0.32-16.928 0-23.456 0.607-10.624 3.584-19.744 8.863-27.008 4.992-6.912 14.944-15.232 33.792-15.232l656.096 0c23.872 0 41.217 12.832 46.368 34.336 3.136 13.056 4 30.656 2.528 53.76-3.296 59.136-11.264 108.512-23.68 146.528-12.576 38.464-28.097 70.368-46.208 94.784-18.272 24.672-38.496 44.192-60.097 57.984-19.647 12.479-38.912 23.936-57.888 34.399-13.344 7.296-32.832 14.496-59.712 22.145-26.336 7.456-56.832 12.544-90.656 15.04C458.144 654.144 445.92 654.592 433.407 654.592zM108.416 242.304c-0.032 5.088 0.031 10.176 0.256 15.84 0.32 8.544 0.479 17.696 0.479 27.488-0.607 22.272 2.145 47.392 8.097 75.296 5.983 28 15.52 55.808 28.384 82.656 12.736 26.624 29.728 51.968 50.496 75.328 20.191 22.752 44.479 41.12 72.191 54.624 32.385 15.231 66.048 25.023 99.744 28.992 34.688 4.128 67.744 5.088 98.56 2.88 30.561-2.24 57.824-6.72 81.024-13.344 28.769-8.192 42.944-14.305 49.729-18.017 18.016-9.983 36.479-20.928 55.231-32.832 16.641-10.592 32.544-26.048 47.296-46.016 15.008-20.256 28.192-47.552 39.168-81.12 11.136-34.08 18.336-79.328 21.376-134.464 1.216-19.456 0.384-30.656-0.735-36.992L108.416 242.304zM919.36 210.656c0-4.992 2.016-9.12 6.048-12.448s8.769-4.992 14.145-4.992 10.111 1.664 14.144 4.992 6.048 7.456 6.048 12.448l0 600.352c0 4.992-2.016 10.176-6.048 15.552-4.032 5.408-8.768 8.097-14.144 8.097s-10.112-2.496-14.145-7.456c-4.032-4.992-6.048-9.952-6.048-14.944L919.36 210.656 919.36 210.656zM829.44 210.656c0-4.992 2.016-9.12 6.048-12.448s8.769-4.992 14.145-4.992 10.111 1.664 14.144 4.992 6.08 7.456 6.08 12.448l0 601.6c0 4.992-2.016 9.952-6.08 14.944-4.032 4.992-8.768 7.456-14.144 7.456s-10.112-2.496-14.145-7.456c-4.032-4.992-6.048-9.952-6.048-14.944L829.44 210.656 829.44 210.656z" p-id="2082"></path></svg>