<?xml version="1.0" standalone="no"?><!DOCTYPE svg PUBLIC "-//W3C//DTD SVG 1.1//EN" "http://www.w3.org/Graphics/SVG/1.1/DTD/svg11.dtd"><svg class="icon" width="32px" height="31.81px" viewBox="0 0 1030 1024" version="1.1" xmlns="http://www.w3.org/2000/svg"><path d="M954.49909 326.312904l-216.992079-183.889147c-71.906703-60.933791-180.388417-52.960189-242.300488 17.801435l-108.48069 123.997082-34.689057-23.12672c0 0-23.360034-22.812565-45.63741-22.812565-26.903743 0-45.638433 22.812565-45.638433 22.812565L78.208223 398.012899 55.389518 398.012899c0 0-45.63741-0.127913-45.63741 45.64048 0 71.783907 0 205.345832 0 228.185003 0 43.513026 45.63741 45.642526 45.63741 45.642526l205.370391 0c0 0 5.724375 0.285502 11.43954-2.439562l196.514699 166.532851c71.904657 60.935838 180.38637 52.963259 242.298442-17.798365l261.578554-298.991652C1034.502192 494.012324 1026.4017 387.239532 954.49909 326.312904zM55.389518 626.201995c0 0 0-77.212546 0-136.913253 0-45.705971 45.63741-45.635363 45.63741-45.635363l22.818705-22.816658 150.659325-117.797893c0 0 22.690792-19.117406 31.891338-19.117406 9.506515 0 35.568077 21.579481 35.568077 21.579481l118.854968 81.358983c0 0 23.606651 15.400758 8.1711 39.97648-14.174837 22.567995-39.869033 9.699919-39.869033 9.699919l-100.619652-70.611198c0 0-18.312064-15.699564-31.120788-2.667759-11.556197 11.762905-9.590426 22.638603-5.834892 29.756721l-57.917084 66.200748c-53.884234 61.593823-54.729485 150.441361-6.643304 212.622562-37.476543 0-96.538707 0-125.959783 0C55.95029 671.837358 55.389518 626.201995 55.389518 626.201995zM511.768733 443.652356c1.172709-2.191922 2.220574-4.338818 3.174296-6.450922 0.441045 0.425695 0.892323 0.843204 1.367137 1.245364l65.095577 55.160297-37.358863 42.707684-64.308655-56.116065c0 0-0.179079-0.344854-0.534166-0.798179C490.771513 473.005894 502.030951 461.85595 511.768733 443.652356zM929.190681 528.000416l-261.575484 298.989605c-41.277102 47.180556-113.597221 52.490491-161.532977 11.868305l-216.992079-183.881984c-47.937802-40.62014-53.336766-111.799272-12.06171-158.983921l59.872622-68.433602 61.045331 40.998763c0 0 17.041118 12.999059 39.419801 17.040095-8.989745 11.752672-7.29208 28.532847 4.207835 38.275745l65.095577 55.164391-56.050574 64.071248 43.403532 36.777625 56.047504-64.069201 65.097624 55.169507c11.981892 10.156314 30.068829 8.829086 40.382733-2.970658 10.321066-11.794627 8.977465-29.596062-3.00545-39.757492l-65.095577-55.160297 37.356816-42.705638 65.095577 55.164391c11.984962 10.154267 30.065759 8.833179 40.384779-2.961448 10.32516-11.806907 8.972349-29.596062-3.01159-39.750329l-43.392276-36.783765 139.827629-30.253024-24.712845-58.142212L659.155525 447.937962l9.649777-140.603295-62.095243-15.414061-9.627265 140.589992-43.401486-36.779671c-9.533121-8.077979-22.922059-8.887414-33.200146-2.939959-6.722098-27.118638-31.533181-40.417525-31.533181-40.417525l-54.487985-36.325323L538.605961 197.009979c41.275056-47.182602 113.595174-52.490491 161.532977-11.877515l216.992079 183.891194C965.066773 409.640728 970.465736 480.82293 929.190681 528.000416z"  /><path d="M479.998145 512l63.960731 0 0 0-63.960731 0 0 0Z"  /><path d="M511.978511 512l0 0 0 0 0 0 0 0Z"  /><path d="M511.978511 512l0 0 0 0 0 0 0 0Z"  /><path d="M511.978511 512l0 0 0 0 0 0 0 0Z"  /></svg>